<?xml version="1.0" encoding="UTF-8"?>
<svg id="Camada_1" data-name="Camada 1" xmlns="http://www.w3.org/2000/svg" viewBox="0 0 1412 1404">
  <defs>
    <style>
      .cls-1 {
        fill: #405189;
        fill-rule: evenodd;
        stroke-width: 0px;
      }
    </style>
  </defs>
  <path class="cls-1" d="m346.55,175.02L.17,349.54v705.59l61,30.83c33.55,16.96,62.56,30.83,64.46,30.83s4.47-158.36,5.7-351.92l2.24-351.92,286.15-143.3,286.14-143.31,286.15,143.31,286.15,143.3v577.72l-286.15,143.3-286.14,143.3-154.92-78.11-154.9-78.09v-567.28l154.9-77.1,154.91-77.1,154.91,77.1,154.91,77.1v296.03l-155.19,77.03c-129.69,64.36-157.98,75.71-172.12,69.08-15.96-7.49-16.93-16.51-16.93-157.93v-149.99l58.09-28.4c31.95-15.62,68.98-34.17,82.3-41.22l24.21-12.83-61.54-31.1c-33.85-17.11-64.54-31.11-68.21-31.11s-42.05,17.26-85.3,38.37l-78.63,38.36v435.22l76.33,38.29c41.97,21.06,81.67,38.22,88.21,38.14,6.53-.09,104.83-47.39,218.43-105.11l206.55-104.93v-439.76l-206.55-104.93c-113.6-57.72-212.35-104.94-219.45-104.94s-105.85,47.22-219.45,104.94l-206.54,104.93v713.48l206.54,103.84c113.6,57.11,211.97,103.94,218.61,104.05,6.64.12,168.32-78.39,359.3-174.45l347.23-174.67V349.52l-347.33-174.7C873.17,78.73,711.5.2,704.91.3c-6.58.11-167.84,78.73-358.36,174.72Z"/>
</svg>